{"title":"Outcasts S01E02 HDTV XviD-FOV [TheCloon].avi","uid":6160822,"size":577508208,"categoryP":"video","categoryS":"tv_shows","magnet":"?xt=urn:btih:ff2ad3eab837e9f3291e09a58cbfc67efd6065cd&amp;dn=Outcasts+S01E02+HDTV+XviD-FOV+%5BTheCloon%5D.avi&amp;tr=udp%3A%2F%2Ftracker.openbittorrent.com%3A80&amp;tr=udp%3A%2F%2Fopen.demonii.com%3A1337&amp;tr=udp%3A%2F%2Ftracker.coppersurfer.tk%3A6969&amp;tr=udp%3A%2F%2Fexodus.desync.com%3A6969","seeders":0,"leechers":1,"uploader":"TheCloon","files":-1,"time":1297207116,"description":"Synopsis:\n\nCass, Fleur and Jack leave the settlement to try and find a a missing survival shuttle. Stella and Tate are confronted by their former foe Julius Berger. \n\n[CODE]\n\nFormat                           : AVI\nFormat/Info                      : Audio Video Interleave\nFile size                        : 551 MiB\nDuration                         : 59mn 21s\nOverall bit rate                 : 1 297 Kbps\nWriting application              : transcode-1.1.5\n\nVideo\nID                               : 0\nFormat                           : MPEG-4 Visual\nFormat profile                   : Advanced Simple@L5\nFormat settings, BVOP            : 2\nFormat settings, QPel            : No\nFormat settings, GMC             : No warppoints\nFormat settings, Matrix          : Default (H.263)\nCodec ID                         : XVID\nCodec ID/Hint                    : XviD\nDuration                         : 59mn 21s\nBit rate                         : 1 154 Kbps\nWidth                            : 624 pixels\nHeight                           : 352 pixels\nDisplay aspect ratio             : 16:9\nFrame rate                       : 25.000 fps\nColor space                      : YUV\nChroma subsampling               : 4:2:0\nBit depth                        : 8 bits\nScan type                        : Progressive\nCompression mode                 : Lossy\nBits/(Pixel*Frame)               : 0.210\nStream size                      : 490 MiB (89%)\nWriting library                  : XviD 1.2.1 (UTC 2008-12-04)\n\nAudio\nID                               : 1\nFormat                           : MPEG Audio\nFormat version                   : Version 1\nFormat profile                   : Layer 3\nMode                             : Joint stereo\nMode extension                   : MS Stereo\nCodec ID                         : 55\nCodec ID/Hint                    : MP3\nDuration                         : 59mn 21s\nBit rate mode                    : Variable\nBit rate                         : 128 Kbps\nChannel(s)                       : 2 channels\nSampling rate                    : 48.0 KHz\nCompression mode                 : Lossy\nStream size                      : 55.3 MiB (10%)\nAlignment                        : Aligned on interleaves\nInterleave, duration             : 24 ms (0.60 video frame)\n[/CODE]\n\n[TVRAGE] &lt;a href=&quot;\nhttp://www.tvrage.com/shows/id-26356&quot; rel=&quot;nofollow&quot; target=&quot;_NEW&quot;&gt;\nhttp://www.tvrage.com/shows/id-26356&lt;/a&gt;\n\n[SCREENS] &lt;a href=&quot;\nhttp://bayimg.com/oadCjaadM&quot; rel=&quot;nofollow&quot; target=&quot;_NEW&quot;&gt;\nhttp://bayimg.com/oadCjaadM&lt;/a&gt;","torrent":{"xt":"urn:btih:ff2ad3eab837e9f3291e09a58cbfc67efd6065cd","amp;dn":"Outcasts+S01E02+HDTV+XviD-FOV+%5BTheCloon%5D.avi","amp;tr":["udp%3A%2F%2Ftracker.openbittorrent.com%3A80","udp%3A%2F%2Fopen.demonii.com%3A1337","udp%3A%2F%2Ftracker.coppersurfer.tk%3A6969","udp%3A%2F%2Fexodus.desync.com%3A6969"],"infoHash":"ff2ad3eab837e9f3291e09a58cbfc67efd6065cd","infoHashBuffer":{"type":"Buffer","data":[255,42,211,234,184,55,233,243,41,30,9,165,140,191,198,126,253,96,101,205]},"announce":[],"urlList":[]}}